<?xml version="1.0" encoding="utf-8"?>
<!DOCTYPE svg PUBLIC "-//W3C//DTD SVG 20010904//EN" "http://www.w3.org/TR/2001/REC-SVG-20010904/DTD/svg10.dtd">
<svg version="1.0"
    xmlns="http://www.w3.org/2000/svg" width="157px" height="242px" viewBox="0 0 157 242">
    <g fill="#008dc9">
        <path d="M25 233.1 c0 -2.8 0.3 -5.1 0.8 -5.1 4 0 28.5 -2.3 31.2 -2.9 l3.5 -0.7 -4.5 -2.3 c-11.3 -5.8 -24.4 -17.5 -32 -28.6 -19.6 -28.5 -22.4 -75.6 -7.4 -125.2 1.9 -6.2 3.4 -11.5 3.4 -11.8 0 -0.3 -3.4 -0.5 -7.5 -0.5 l-7.5 0 3.9 -7.7 c9.8 -19.5 23.7 -32.3 42.8 -39.3 20.4 -7.4 40.4 -6.4 59.8 2.9 15.9 7.6 27.4 18.8 35.4 34.6 2.3 4.4 4.1 8.3 4.1 8.7 0 0.5 -2.9 0.8 -6.4 0.8 -3.6 0 -6.7 0.4 -7.1 0.9 -0.3 0.6 0.8 5.6 2.5 11.3 20 67.3 8.8 122 -30.5 148.5 -3.3 2.2 -7.6 4.8 -9.5 5.8 l-3.5 1.8 3 0.9 c2.3 0.6 26.4 2.7 31.8 2.8 0.4 0 0.7 2.3 0.7 5 l0 5 -5.3 0 c-9.5 0 -26.9 -2.1 -37.9 -4.5 -8.3 -1.8 -11.5 -2.2 -14 -1.4 -6.9 2 -25.8 4.8 -37.5 5.5 l-12.3 0.7 0 -5.2z m56.7 -17.3 c8 -8.4 15.5 -23.9 18.8 -38.8 1.8 -8.5 3.1 -33.4 2.1 -40.4 -0.6 -3.9 -1 -4.6 -2.4 -4.1 -10.8 4.2 -27.4 4.9 -38.5 1.6 -5.9 -1.7 -6.9 -1.8 -7.4 -0.5 -0.3 0.8 -0.3 9.9 0 20.2 0.5 20.4 2.6 30.7 8.4 43 3.9 8.2 13.5 22.1 15.4 22.2 0.3 0 1.9 -1.5 3.6 -3.2z m32.8 -17.3 c16.5 -16.4 23.3 -34.1 24.2 -63.2 0.5 -14.4 -0.7 -32.5 -2.4 -36.9 -0.3 -0.8 -1.7 1 -3.4 4.2 -4.3 8.5 -9.2 14.6 -16.8 20.8 l-3.4 2.7 -0.2 23.2 c-0.1 21.7 -0.3 23.9 -2.8 33.6 -1.5 5.7 -4.5 14.2 -6.7 18.9 -2.2 4.7 -4 8.7 -4 8.9 0 1.6 7.9 -4.6 15.5 -12.2z m-57.5 11.1 c0 -0.2 -1.6 -3.8 -3.6 -8.1 -7.8 -16.8 -11.6 -42 -9.6 -63.5 1 -11.2 1 -11.5 -1.1 -12.9 -5.3 -3.6 -14.5 -14.1 -17.7 -20.3 -1.9 -3.8 -3.8 -6.8 -4.1 -6.8 -0.4 0 -1.1 3.5 -1.7 7.8 -5.9 42.7 3.2 76.4 25.9 96 7.3 6.3 11.9 9.3 11.9 7.8z m33.9 -85.1 c8.9 -2.3 16.2 -6.6 23.1 -13.5 9.7 -9.7 15 -22.2 15 -35.2 0 -6.3 -1.7 -15.5 -3 -16.3 -1.4 -0.9 -11.4 3.3 -17.6 7.4 -11.1 7.2 -18.5 16 -25.6 30.3 l-4 8.2 -2.6 -6 c-4.6 -10.3 -9.9 -17.9 -17.6 -25.1 -7.4 -6.9 -18.9 -13.7 -25.3 -14.9 -3.1 -0.6 -3.1 -0.6 -4.3 4.8 -0.7 3.2 -1.1 9.4 -0.8 14.9 0.4 8.1 0.9 10.4 3.9 16.9 6.4 13.7 19.2 24.7 32.9 28.4 7.1 1.9 19 2 25.9 0.1z m-8.4 -47.5 c4.6 -6.6 15.9 -16.6 23.7 -20.9 7.9 -4.5 21.2 -9.1 25.9 -9.1 1.6 0 2.9 -0.3 2.9 -0.7 0 -1.6 -8.3 -11.4 -13.2 -15.5 -29.4 -25 -72.1 -20.7 -96 9.6 -4.6 5.8 -4.9 5.4 6.7 8 14.5 3.3 30.1 13.2 40.5 25.9 3 3.6 5.8 6.6 6.1 6.7 0.4 0 1.9 -1.8 3.4 -4z"/>
        <path d="M47.2 91.4 c-2.4 -1.7 -3 -6.2 -1 -8.2 0.7 -0.7 2.4 -1.2 3.8 -1.2 3.3 0 5 1.7 5 5.1 0 2.4 -3 5.9 -5 5.9 -0.3 0 -1.6 -0.7 -2.8 -1.6z"/>
        <path d="M104.3 92 c-5.3 -2.2 -3.1 -10 2.8 -10 4.9 0 6.7 6.6 2.7 9.4 -2.5 1.8 -2.5 1.8 -5.5 0.6z"/>
    </g>
</svg>