<svg xmlns="http://www.w3.org/2000/svg" version="1.0" width="540.000000pt" height="540.000000pt" viewBox="0 0 540.000000 540.000000" preserveAspectRatio="xMidYMid meet">
    <metadata>
Created by potrace 1.16, written by Peter Selinger 2001-2019
</metadata>
    <g transform="translate(0.000000,540.000000) scale(0.100000,-0.100000)" fill="#000000" stroke="none">
        <path d="M3053 5339 c-430 -41 -885 -262 -1178 -570 -504 -531 -663 -1293 -413 -1979 17 -47 46 -116 65 -153 l34 -68 22 28 c12 15 43 55 67 87 73 96 249 292 373 415 l116 115 -24 28 c-31 36 -41 89 -26 138 12 40 60 89 89 91 102 5 118 9 140 34 27 32 28 75 3 130 -29 64 -44 144 -44 225 1 88 14 144 54 223 l29 58 -55 51 c-69 63 -105 115 -135 193 -29 78 -32 205 -6 285 10 30 20 57 22 59 2 2 34 -25 72 -60 80 -76 187 -133 293 -155 100 -22 261 -13 394 20 142 36 221 46 373 46 156 0 270 -20 316 -55 65 -50 158 -54 286 -13 66 21 244 106 290 138 14 9 36 23 49 30 l24 12 -7 -64 c-15 -150 -81 -326 -170 -453 l-45 -65 33 -49 c65 -96 73 -229 21 -351 -21 -51 -26 -75 -23 -117 3 -28 10 -58 16 -66 10 -12 172 -66 245 -82 24 -5 27 -9 27 -50 0 -24 -5 -78 -11 -119 -10 -68 -9 -86 17 -213 27 -128 29 -154 29 -358 0 -236 -10 -313 -61 -485 -39 -132 -61 -186 -124 -313 -33 -64 -57 -117 -54 -117 10 0 196 125 249 167 381 303 627 735 701 1228 25 166 15 477 -20 641 -80 377 -275 734 -540 987 -406 389 -956 580 -1513 526z" fill="#ff5000" />
        <path d="M2260 4509 c0 -27 81 -179 123 -230 39 -47 65 -66 175 -123 185 -97 320 -200 502 -385 l155 -157 45 68 c105 162 329 340 572 457 170 81 290 210 314 338 8 45 1 50 -35 24 -47 -34 -171 -89 -241 -108 -95 -25 -238 -23 -315 4 -102 36 -175 47 -310 46 -158 -1 -223 -11 -340 -54 -81 -29 -101 -33 -200 -33 -94 0 -121 4 -189 27 -84 30 -148 63 -207 109 -40 31 -49 34 -49 17z" />
        <path d="M2450 4078 c-32 -52 -53 -137 -53 -213 0 -79 13 -134 50 -218 24 -53 25 -61 14 -114 -24 -123 -80 -188 -188 -219 -42 -12 -52 -19 -43 -29 20 -24 155 -123 245 -180 50 -31 94 -60 98 -64 10 -10 -229 31 -311 52 l-54 15 -61 -51 c-34 -27 -118 -107 -187 -176 -262 -265 -419 -519 -644 -1046 -171 -399 -271 -596 -399 -790 -161 -242 -381 -472 -641 -668 l-48 -37 27 -10 c49 -19 268 -59 385 -71 304 -30 642 33 934 175 147 72 337 199 439 294 193 181 334 275 757 506 361 198 547 343 666 523 117 175 159 331 159 591 l0 173 17 -58 c48 -162 63 -412 32 -561 -47 -226 -175 -422 -386 -589 -75 -59 -172 -120 -503 -313 -457 -266 -672 -443 -716 -588 -45 -150 129 -256 513 -312 169 -25 186 -25 116 4 -114 48 -192 118 -236 214 -49 109 -40 183 33 254 60 59 150 111 274 159 242 93 535 262 756 438 104 82 299 275 370 366 232 299 362 606 410 971 22 169 17 595 -7 619 -3 4 -29 -6 -58 -20 -71 -36 -190 -65 -266 -65 -71 0 -92 14 -36 25 93 17 234 119 311 225 l32 44 -59 16 c-114 32 -184 88 -228 185 -36 80 -40 119 -14 147 80 83 80 231 1 386 l-22 42 -57 -36 c-274 -174 -526 -399 -634 -566 -17 -26 -35 -45 -38 -41 -4 5 -45 55 -92 113 -85 104 -232 255 -318 326 -60 49 -169 122 -252 168 l-67 37 -21 -33z" />
    </g>
</svg>